# xmcd
#
# Track frame offsets:
#	182
#	16237
#	28585
#	41035
#	52335
#	63090
#	72927
#	82142
#
# Disc length: 1235 seconds
#
# Revision: 1
# Processed by: cddbd v1.5.2PL0 Copyright (c) Steve Scherf et al.
# Submitted via: EZCDAudioConverter 7.1.2.1
#
DISCID=6b04d108
DTITLE=Various Artist - Country Sampler #4
DYEAR=1995
DGENRE=Country
TTITLE0=Eddy Arnold - I Love To Tell The Story 
TTITLE1=Bobby Bare - Just A Closer Walk With Thee
TTITLE2=Skeeter Davis - Precious Memories
TTITLE3=Jimmy Dean - Old Time Religion
TTITLE4=Hank Snow - Sweet Hour Of Prayer
TTITLE5=Chet Atkins - Will The Circle Be Unbroken
TTITLE6=Anita Kerr Quartet - Every Time I Feel The Spirit
TTITLE7=Jim Reeves - Where We'll Never Grow Old
EXTD=
EXTT0=
EXTT1=
EXTT2=
EXTT3=
EXTT4=
EXTT5=
EXTT6=
EXTT7=
PLAYORDER=
